<svg width="48" height="48" viewBox="0 0 48 48" fill="none" xmlns="http://www.w3.org/2000/svg">
<rect width="47.9999" height="47.9999" fill="white"/>
<path d="M13.6621 16.7236C13.7507 16.6756 14.5432 18.3241 15.9336 18.8965C16.4525 19.1051 16.9307 19.1271 17.2021 19.1123H47.998V33.6211C47.3112 33.6174 46.6243 33.614 45.9375 33.6104L30.707 33.6211C30.6389 33.6209 30.5857 33.5672 30.582 33.499C30.4989 30.4656 29.23 28.7687 27.2266 28.7705C25.5002 28.7706 24.2608 30.1019 24.2607 31.8447C24.2607 33.6965 25.609 34.8632 28.3213 34.8633H29.3965C29.472 34.8634 29.536 34.9352 29.5215 35.0107C29.2593 36.5118 28.1203 37.5225 26.3809 37.5225C25.7328 37.5224 25.136 37.3545 24.752 37.1016C24.4159 36.8857 23.9423 37.0938 23.9385 37.498V37.5059C23.9387 38.1686 24.8025 38.8164 26.4346 38.8164C28.859 38.8164 30.2527 37.2651 30.5371 35.0293C30.5483 34.963 30.6003 34.917 30.6611 34.917L45.9375 34.9062V34.9043C46.6208 34.908 47.9834 34.9111 47.9834 34.9111L48 48H0V19.1123H10.7725C12.1942 19.1123 13.0197 18.764 13.4131 18.1807C13.7697 17.6595 13.7025 17.1417 13.7012 17.1318C13.6883 16.8865 13.6235 16.7496 13.6621 16.7236ZM21.2314 30.2881C21.0338 29.8857 20.4741 29.7569 20.1787 30.0947C20.0698 30.2203 20.0156 30.3845 20.0156 30.5654C20.0156 30.7464 20.0885 30.9813 20.3008 31.4668C20.8269 32.5301 21.0391 33.4811 21.0391 34.417C21.039 36.3258 19.9255 37.6015 17.4404 37.6016C16.8551 37.6016 15.4493 37.6165 14.4521 36.542C14.3649 36.451 13.594 35.6054 13.5625 34.4023C13.5514 34.0073 13.5256 33.0191 14.085 32.3027C14.2087 32.1476 14.5191 31.7967 14.4102 31.5918C14.3603 31.4995 14.238 31.4705 14.2158 31.4668C13.9594 31.4062 13.6979 31.6785 13.5889 31.7949C13.3359 32.0552 12.6579 32.9876 12.6689 34.5439C12.6874 37.3891 14.3622 38.9033 17.4219 38.9033H17.4238C20.5589 38.9032 22.1434 37.1511 22.1436 34.417C22.1436 32.855 21.8186 31.4993 21.2314 30.2881ZM27.2266 29.9414C28.6391 29.9414 29.5105 31.1528 29.625 33.4902C29.6286 33.5602 29.5718 33.6229 29.5 33.623H27.9434C26.0008 33.623 25.2305 32.9025 25.2305 31.8242C25.2307 30.7462 26.058 29.9395 27.2266 29.9395V29.9414ZM17.2021 27.3457C16.4931 27.3457 15.9336 27.9935 15.9336 28.8262C15.9336 29.6053 16.4119 30.0908 17.2021 30.0908C17.9924 30.0908 18.4814 29.6034 18.4814 28.8262C18.4814 27.9935 17.9204 27.3458 17.2021 27.3457ZM17.2041 27.8643C17.6934 27.8643 18.0722 28.2723 18.0723 28.8076C18.0723 29.2877 17.7488 29.5723 17.2041 29.5723C16.6594 29.5723 16.3496 29.2932 16.3496 28.8076C16.3497 28.2723 16.7148 27.8643 17.2041 27.8643ZM48 17.8301H17.2832C16.0978 17.8301 15.553 17.4014 14.1738 15.4482L11.2344 11.3623C11.179 11.2903 11.2048 11.1848 11.2842 11.1387L16.1328 8.42676C16.6184 8.15351 16.4281 7.42188 15.876 7.42188C15.6453 7.42192 15.4419 7.49188 15.1152 7.6709L10.4678 10.3301C9.93236 10.6255 9.77708 11.3178 10.126 11.8145L11.9824 14.4082C12.6268 15.2889 12.8975 15.9225 12.8975 16.5244C12.8974 17.3865 12.2349 17.8164 10.4551 17.8164H0.00195312V0H48V17.8301ZM37.7754 10.0977C37.5446 9.49576 37.009 9.25685 36.4385 9.47656C35.8939 9.68341 35.6592 10.2822 35.8789 10.8545C36.0229 11.2404 36.3726 11.5245 36.8047 11.6611C36.4852 11.9528 36.1895 12.0657 35.9697 12.1045C35.7189 12.1579 35.5232 12.1246 35.4805 12.2295C35.4343 12.3458 35.5933 12.5507 35.7871 12.6338C35.9699 12.715 36.1585 12.678 36.3672 12.5986C36.8692 12.4048 37.2646 12.1101 37.5322 11.7539C37.7445 11.7391 37.968 11.6887 38.1729 11.6094C38.3242 11.5485 38.3706 11.4856 38.3965 11.4395L38.3945 11.4375C38.5179 11.2529 38.4572 10.9577 38.3447 10.915C38.2894 10.9003 38.2542 10.9415 38.0771 11.0098C37.9848 11.043 37.8973 11.0634 37.8438 11.0781C37.9158 10.7606 37.9009 10.4318 37.7754 10.0977ZM36.6162 9.97949C36.9375 9.86133 37.2329 9.97188 37.377 10.3467C37.471 10.5996 37.4522 10.8582 37.3193 11.1074C37.3025 11.1533 37.2457 11.1828 37.1904 11.1865C36.7215 11.205 36.4442 11.0313 36.3242 10.7285C36.1988 10.3982 36.3246 10.0958 36.6162 9.97949Z" fill="url(#paint0_radial_1412_7678)"/>
<defs>
<radialGradient id="paint0_radial_1412_7678" cx="0" cy="0" r="1" gradientTransform="matrix(-55.2434 64.1676 -66.869 -57.5468 55.2434 -6.89487)" gradientUnits="userSpaceOnUse">
<stop offset="0.115479" stop-color="#EDB7BE"/>
<stop offset="0.388878" stop-color="#C78CBF"/>
<stop offset="0.578907" stop-color="#9887D2"/>
<stop offset="0.789792" stop-color="#89ACEE"/>
</radialGradient>
</defs>
</svg>
